<svg width="27" height="33" fill="none" xmlns="http://www.w3.org/2000/svg"><path d="M22.609 17.73c-.036-4.029 3.294-5.989 3.446-6.08-1.886-2.754-4.81-3.13-5.837-3.16-2.455-.259-4.837 1.471-6.087 1.471-1.276 0-3.202-1.446-5.278-1.404-2.672.042-5.17 1.59-6.541 3.995-2.829 4.904-.72 12.11 1.99 16.074 1.356 1.941 2.94 4.109 5.014 4.033 2.028-.084 2.786-1.295 5.234-1.295 2.425 0 3.137 1.295 5.252 1.246 2.177-.035 3.547-1.95 4.855-3.909 1.567-2.225 2.196-4.416 2.221-4.529-.051-.017-4.228-1.613-4.27-6.442h.001zM18.614 5.883c1.091-1.367 1.838-3.225 1.63-5.112-1.578.07-3.553 1.094-4.69 2.43-1.007 1.179-1.905 3.109-1.674 4.923 1.774.132 3.595-.896 4.733-2.241h.001z" fill="#fff"/></svg>