<svg width="68" height="28" fill="none" xmlns="http://www.w3.org/2000/svg"><path fill-rule="evenodd" clip-rule="evenodd" d="M12.59 3.572c.76-.96 1.276-2.25 1.14-3.567-1.114.055-2.473.74-3.26 1.702-.706.823-1.331 2.167-1.168 3.429 1.25.11 2.5-.63 3.288-1.564zm1.125 1.81c-1.815-.11-3.359 1.04-4.226 1.04s-2.194-.984-3.63-.958c-1.87.028-3.604 1.094-4.552 2.79-1.95 3.394-.515 8.427 1.382 11.19.921 1.368 2.031 2.873 3.494 2.82 1.383-.055 1.924-.904 3.604-.904 1.68 0 2.168.903 3.63.876 1.518-.027 2.467-1.368 3.388-2.736 1.056-1.56 1.49-3.064 1.516-3.147-.027-.027-2.925-1.15-2.952-4.514-.028-2.818 2.275-4.158 2.383-4.242-1.3-1.94-3.332-2.16-4.037-2.214zm13.635 7.026h3.62c2.749 0 4.313-1.494 4.313-4.082 0-2.59-1.564-4.068-4.298-4.068h-3.636l.001 8.15zM31.817 1.57c3.946 0 6.694 2.745 6.694 6.74 0 4.012-2.805 6.77-6.793 6.77H27.35v7.013h-3.157V1.57h7.624zm17.06 14.948v-1.152l-3.51.227c-1.972.128-3.001.868-3.001 2.162 0 1.252 1.071 2.063 2.748 2.063 2.143 0 3.763-1.38 3.763-3.3zm-9.583 1.323c0-2.632 1.987-4.14 5.65-4.367l3.933-.242v-1.137c0-1.664-1.085-2.575-3.016-2.575-1.593 0-2.748.825-2.987 2.09h-2.847c.084-2.66 2.564-4.592 5.92-4.592 3.606 0 5.96 1.905 5.96 4.863v10.212h-2.918v-2.46h-.07c-.832 1.607-2.664 2.617-4.65 2.617-2.931 0-4.975-1.764-4.975-4.41zm15.295 9.742v-2.46c.197.028.676.057.93.057 1.395 0 2.184-.597 2.663-2.134l.282-.91-5.34-14.934h3.297l3.72 12.117h.07l3.72-12.117h3.214L61.607 22.89c-1.269 3.598-2.72 4.779-5.792 4.779-.24 0-1.015-.03-1.226-.086z" fill="#222"/></svg>