<svg width="234" height="24" fill="none" xmlns="http://www.w3.org/2000/svg"><path fill-rule="evenodd" clip-rule="evenodd" d="M38.45 15.151c.161.14.249.346.24.56 0 .603-.35.904-1.046.904H31.65a.836.836 0 01-.886-.87c0-.31.128-.604.353-.815l4.948-5.324h-3.83a1.052 1.052 0 01-.7-.205.716.716 0 01-.24-.576c0-.59.348-.887 1.046-.887h5.728a.841.841 0 01.647.257.876.876 0 01.239.613 1.22 1.22 0 01-.354.833l-4.93 5.306h4.078c.25-.017.5.055.701.204zm3.165-3.665h4.043a2.387 2.387 0 00-.461-1.64 1.675 1.675 0 00-1.348-.559c-1.253 0-1.997.733-2.234 2.2zm5.72.985a.71.71 0 01-.524.204h-5.266a2.547 2.547 0 00.663 1.775 2.367 2.367 0 001.73.604c.38.005.76-.046 1.126-.15a4.33 4.33 0 001.002-.454.93.93 0 01.443-.124.557.557 0 01.47.222.863.863 0 01.168.541c.002.34-.164.66-.443.852a3.994 3.994 0 01-1.268.586 5.837 5.837 0 01-1.64.23 4.917 4.917 0 01-2.323-.523 3.7 3.7 0 01-1.534-1.482 4.462 4.462 0 01-.54-2.237 5.435 5.435 0 01.549-2.474 4.134 4.134 0 011.543-1.704 4.239 4.239 0 012.27-.613 3.584 3.584 0 012.793 1.083 4.438 4.438 0 01.984 3.088.781.781 0 01-.203.576zm9.125-3.957c.545.65.815 1.488.755 2.334 0 .224-.007.396-.02.515l-.354 4.294a1.098 1.098 0 01-.355.78 1.18 1.18 0 01-.815.285 1.087 1.087 0 01-.799-.284.954.954 0 01-.247-.78l.355-4.206c.094-1.314-.426-1.97-1.56-1.97a1.991 1.991 0 00-1.526.585 2.63 2.63 0 00-.638 1.633l-.337 3.957a1.098 1.098 0 01-.355.78 1.18 1.18 0 01-.815.285 1.05 1.05 0 01-.79-.284 1.03 1.03 0 01-.257-.78l.568-6.887a.955.955 0 01.354-.736c.237-.187.533-.284.834-.275.275-.016.543.08.745.266.181.19.26.453.213.71l-.019.337c.302-.43.711-.773 1.189-.994a3.83 3.83 0 011.667-.354 2.901 2.901 0 012.207.79zM21.568 7.48a3.282 3.282 0 00-4.199-1.16 3.239 3.239 0 00.904 6.074 6.956 6.956 0 01-7.171 6.734 6.956 6.956 0 01-6.733-6.892 6.858 6.858 0 014.476-6.448c.518-.187.818-.73.698-1.269l-.008-.033a1.094 1.094 0 01.972-1.329 8.862 8.862 0 011.828.018 1.106 1.106 0 001.227-1.042A1.138 1.138 0 0012.52.97a11.148 11.148 0 00-1.197-.063C5.07.906 0 5.98 0 12.238c0 6.26 5.07 11.331 11.323 11.331 6.254 0 11.323-5.072 11.323-11.33 0-1.109-.223-3.497-1.078-4.759z" fill="#AAA"/><path fill-rule="evenodd" clip-rule="evenodd" d="M15.594 1.766a1.174 1.174 0 010 2.348 1.174 1.174 0 010-2.348zm50.494 9.4a1.174 1.174 0 11-.001 2.346 1.174 1.174 0 01.001-2.347zm14.814-2.76a.676.676 0 01.175.473c0 .245-.09.46-.267.65l-5.017 5.502h4.287c.222 0 .393.056.515.167a.58.58 0 01.183.45c0 .22-.067.39-.2.506-.132.116-.327.174-.581.174h-5.781c-.213 0-.376-.06-.491-.183a.644.644 0 01-.174-.465c0-.22.088-.426.265-.615l5.035-5.553h-4.005c-.222 0-.393-.056-.515-.167a.582.582 0 01-.182-.449c0-.455.255-.68.764-.68h5.5c.21 0 .373.062.49.19h-.001zm3.467 1.438c-.4.4-.655.98-.765 1.746h4.286c.023-.765-.136-1.347-.473-1.746-.338-.4-.817-.598-1.437-.598-.676 0-1.213.2-1.611.598zm4.81 2.535a.641.641 0 01-.475.175h-5.167c.012.82.222 1.455.632 1.905.41.448 1.002.673 1.777.673.775 0 1.495-.222 2.16-.666a.673.673 0 01.366-.116c.155 0 .282.061.381.183.1.122.15.265.15.432 0 .256-.11.471-.331.65-.3.242-.712.442-1.238.597a5.56 5.56 0 01-1.587.233c-.798 0-1.496-.16-2.093-.482a3.368 3.368 0 01-1.388-1.38c-.327-.6-.49-1.29-.49-2.078 0-.877.168-1.655.507-2.337.337-.682.81-1.21 1.42-1.587.609-.377 1.313-.567 2.11-.567 1.108 0 1.958.33 2.55.99.592.66.89 1.616.89 2.868 0 .222-.058.391-.174.507zm7.109-4.198c.128.111.192.272.192.482 0 .51-.277.787-.831.831l-.448.05c-.765.078-1.332.3-1.704.665-.37.366-.583.905-.64 1.614l-.315 3.79c-.022.277-.116.48-.282.607a.981.981 0 01-.615.192c-.244 0-.44-.067-.59-.2-.149-.133-.213-.332-.19-.599l.547-6.8a.712.712 0 01.283-.566 1 1 0 01.614-.198c.222 0 .398.063.532.19.133.128.194.313.183.557l-.05.683c.553-.854 1.429-1.325 2.625-1.414l.184-.016c.21-.022.379.022.505.132zm6.168 6.07c.41-.577.617-1.352.617-2.329 0-.83-.193-1.466-.574-1.904-.382-.437-.929-.656-1.636-.656-.777 0-1.37.288-1.78.864-.408.577-.613 1.353-.613 2.328 0 .843.191 1.48.572 1.913.383.431.933.648 1.653.648.766 0 1.352-.289 1.761-.865zm-3.838 1.712a3.334 3.334 0 01-1.361-1.38c-.322-.6-.482-1.29-.482-2.079 0-.91.169-1.7.507-2.377a3.69 3.69 0 011.428-1.563c.615-.366 1.327-.549 2.135-.549.797 0 1.49.163 2.076.49a3.41 3.41 0 011.363 1.38c.322.593.482 1.29.482 2.087 0 .91-.168 1.7-.506 2.37a3.712 3.712 0 01-1.43 1.554c-.614.366-1.33.55-2.15.55-.787 0-1.474-.162-2.062-.483zm14.405-6.119c-.398.4-.653.98-.764 1.746h4.287c.022-.765-.136-1.347-.474-1.746-.337-.4-.817-.598-1.437-.598-.676 0-1.213.2-1.612.598zm4.81 2.535c-.116.117-.274.175-.474.175h-5.166c.011.82.221 1.455.632 1.905.408.448 1.002.673 1.778.673.775 0 1.493-.222 2.158-.666a.676.676 0 01.366-.116c.155 0 .282.061.383.183a.662.662 0 01.148.432c0 .256-.11.471-.332.65-.299.242-.711.442-1.237.597a5.549 5.549 0 01-1.587.233c-.798 0-1.496-.16-2.093-.482a3.36 3.36 0 01-1.387-1.38c-.327-.6-.49-1.29-.49-2.078 0-.877.168-1.655.506-2.337a3.818 3.818 0 011.42-1.587c.61-.377 1.313-.567 2.11-.567 1.107 0 1.959.33 2.551.99.592.66.888 1.616.888 2.868 0 .222-.057.391-.174.507zm4.973-5.96c-.283.31-.452.77-.507 1.38l-.034.416h1.646c.222 0 .39.055.506.166a.59.59 0 01.175.448c0 .455-.255.682-.764.682h-1.662l-.482 6.102c-.011.267-.102.466-.273.6a.971.971 0 01-.607.2.87.87 0 01-.582-.2c-.155-.134-.227-.333-.215-.6l.481-6.102h-.98c-.221 0-.393-.055-.515-.166a.573.573 0 01-.183-.449c0-.22.066-.39.2-.507.132-.117.326-.174.58-.174h.999l.016-.217c.177-2.127 1.323-3.258 3.438-3.39l.35-.018c.586-.033.88.161.88.582 0 .21-.06.372-.183.482-.122.111-.299.177-.53.2l-.45.032c-.587.045-1.022.223-1.304.533zm6.415 0c-.283.31-.452.77-.508 1.38l-.033.416h1.645c.223 0 .391.055.507.166.116.11.174.26.174.448 0 .455-.255.682-.763.682h-1.662l-.482 6.102c-.011.267-.102.466-.274.6a.97.97 0 01-.607.2.867.867 0 01-.581-.2c-.155-.134-.227-.333-.216-.6l.482-6.102h-.98c-.221 0-.394-.055-.515-.166a.573.573 0 01-.184-.449c0-.22.067-.39.2-.507.132-.117.327-.174.582-.174h.997l.017-.217c.177-2.127 1.323-3.258 3.438-3.39l.349-.018c.587-.033.88.161.88.582 0 .21-.06.372-.182.482-.123.111-.3.177-.531.2l-.45.032c-.586.045-1.02.223-1.303.533zm7.849 7.831c.41-.576.615-1.35.615-2.328 0-.83-.19-1.466-.573-1.904-.382-.437-.928-.656-1.636-.656-.777 0-1.368.288-1.779.864-.41.577-.613 1.353-.613 2.328 0 .843.19 1.48.572 1.913.383.431.933.648 1.653.648.765 0 1.35-.289 1.761-.865zm-3.838 1.713a3.336 3.336 0 01-1.362-1.38c-.32-.6-.482-1.29-.482-2.079 0-.91.17-1.7.507-2.377a3.681 3.681 0 011.43-1.563c.613-.366 1.326-.549 2.133-.549.798 0 1.49.163 2.077.49.588.328 1.04.788 1.363 1.38.321.593.482 1.29.482 2.087 0 .91-.17 1.7-.507 2.37a3.699 3.699 0 01-1.43 1.554c-.613.366-1.33.55-2.15.55-.787 0-1.473-.162-2.06-.483h-.001zm13.085-7.782c.128.111.192.272.192.482 0 .51-.278.787-.83.831l-.45.05c-.763.078-1.331.3-1.703.665-.37.366-.583.905-.639 1.614l-.316 3.79c-.022.277-.116.48-.281.607a.983.983 0 01-.615.192c-.245 0-.44-.067-.592-.2-.148-.133-.212-.332-.189-.599l.548-6.8a.709.709 0 01.283-.566.995.995 0 01.613-.198c.222 0 .399.063.533.19.132.128.194.313.181.557l-.049.683c.553-.854 1.428-1.325 2.626-1.414l.182-.016c.21-.022.38.022.506.132zm3.823 5.138a2.005 2.005 0 00-.016.3c0 .498.113.877.341 1.138.226.261.545.39.955.39.133 0 .265-.008.397-.023.134-.018.24-.025.317-.025.132 0 .239.052.316.157.077.106.116.252.116.44 0 .278-.107.472-.324.583-.216.11-.596.166-1.138.166-.842 0-1.496-.233-1.961-.698-.465-.467-.698-1.12-.698-1.963 0-.177.006-.315.018-.416l.299-3.856h-.981c-.222 0-.393-.056-.515-.167-.122-.11-.183-.266-.183-.466 0-.21.067-.373.2-.49.133-.116.326-.175.58-.175h.998l.132-1.729a.83.83 0 01.284-.566.908.908 0 01.615-.215c.254 0 .452.072.597.215.145.146.204.34.183.583l-.134 1.712h1.646c.21 0 .376.056.5.166.12.111.18.26.18.45 0 .455-.254.682-.763.682h-1.662l-.299 3.807zm14.795-4.589c.47.477.706 1.18.706 2.112 0 .222-.005.388-.017.5l-.332 4.271c-.023.255-.114.452-.274.591-.16.138-.367.208-.623.208-.254 0-.454-.07-.598-.208-.144-.139-.205-.336-.183-.59l.334-4.19c.009-.078.015-.194.015-.35 0-1.13-.542-1.696-1.627-1.696-.688 0-1.233.205-1.637.615-.405.41-.634.982-.69 1.713l-.316 3.907c-.022.255-.113.452-.273.591a.93.93 0 01-.624.208c-.254 0-.452-.07-.59-.208-.138-.139-.202-.336-.19-.59l.548-6.8a.716.716 0 01.283-.558.99.99 0 01.63-.208c.232 0 .416.067.549.2.133.133.193.316.183.548l-.05.582c.277-.432.65-.767 1.122-1.005.47-.239 1-.358 1.586-.358.908 0 1.598.238 2.068.715zm8.035 5.52c.411-.576.616-1.35.616-2.328 0-.83-.192-1.466-.574-1.904-.38-.437-.928-.656-1.636-.656-.776 0-1.368.288-1.779.864-.408.577-.614 1.353-.614 2.328 0 .843.191 1.48.573 1.913.383.431.934.648 1.653.648.765 0 1.351-.289 1.761-.865zm-3.837 1.713a3.339 3.339 0 01-1.363-1.38c-.32-.6-.48-1.29-.48-2.079 0-.91.168-1.7.505-2.377a3.694 3.694 0 011.43-1.563c.615-.366 1.326-.549 2.135-.549.797 0 1.49.163 2.075.49a3.41 3.41 0 011.363 1.38c.322.593.482 1.29.482 2.087 0 .91-.168 1.7-.506 2.37a3.705 3.705 0 01-1.43 1.554c-.614.366-1.331.55-2.151.55-.786 0-1.473-.162-2.06-.483zm14.571-7.233c.47.477.706 1.18.706 2.112 0 .222-.006.388-.017.5l-.332 4.271c-.023.255-.115.452-.274.591-.16.138-.369.208-.624.208-.254 0-.453-.07-.598-.208-.144-.139-.204-.336-.183-.59l.333-4.19a2.94 2.94 0 00.016-.35c0-1.13-.542-1.696-1.627-1.696-.687 0-1.232.205-1.637.615-.405.41-.633.982-.69 1.713l-.315 3.907c-.022.255-.114.452-.274.591-.16.138-.369.208-.624.208s-.451-.07-.589-.208c-.139-.139-.203-.336-.191-.59l.547-6.8a.725.725 0 01.283-.558.994.994 0 01.631-.208c.233 0 .416.067.55.2.133.133.193.316.182.548l-.05.582a2.81 2.81 0 011.121-1.005c.47-.239 1-.358 1.587-.358.908 0 1.598.238 2.069.715zm8.461 5.554c.415-.555.622-1.32.622-2.295 0-.842-.194-1.49-.581-1.946-.388-.454-.94-.68-1.661-.68-.73 0-1.307.28-1.728.838-.42.56-.631 1.323-.631 2.286 0 .855.194 1.506.582 1.954.387.45.94.674 1.66.674.743 0 1.322-.277 1.737-.83zm.681-5.787c.526.322.933.78 1.22 1.372.29.593.433 1.283.433 2.07 0 .887-.161 1.671-.482 2.353-.32.682-.773 1.212-1.354 1.588-.582.376-1.25.564-2.001.564-.631 0-1.178-.132-1.637-.398a2.635 2.635 0 01-1.055-1.13l-.05.697c-.011.255-.099.452-.266.591a.931.931 0 01-.614.208c-.245 0-.438-.07-.582-.208-.145-.139-.21-.336-.2-.59l.831-10.326a.74.74 0 01.283-.565.97.97 0 01.631-.217c.243 0 .435.067.572.2.14.133.203.316.193.55l-.333 4.072c.276-.41.645-.73 1.105-.964.46-.233.96-.349 1.503-.349.676 0 1.276.161 1.803.482zm7.614 6.086c.399-.41.625-.937.68-1.58l.035-.465h-.466c-.82 0-1.462.044-1.927.133-.466.088-.797.233-.997.431-.2.2-.3.478-.3.832 0 .388.136.696.408.923.272.227.64.34 1.105.34.575 0 1.062-.204 1.462-.614zm2.443-3.708c0 .21-.006.372-.018.482l-.33 4.29c-.013.244-.093.432-.243.566-.15.132-.346.2-.59.2-.243 0-.437-.076-.581-.226a.693.693 0 01-.182-.574l.032-.565c-.232.455-.552.8-.963 1.04-.41.237-.887.357-1.428.357-.81 0-1.477-.219-2.002-.657-.527-.438-.789-1-.789-1.687 0-.62.159-1.112.482-1.472.32-.36.832-.623 1.536-.79.703-.166 1.648-.25 2.832-.25h.599l.033-.415c.044-.632-.068-1.094-.332-1.388-.265-.294-.698-.44-1.296-.44-.732 0-1.54.244-2.426.731a.676.676 0 01-.332.083.541.541 0 01-.416-.183.625.625 0 01-.166-.432c0-.266.139-.488.416-.665a4.995 4.995 0 011.42-.633 6.109 6.109 0 011.67-.232c2.048 0 3.074.954 3.074 2.86zm8.777-2.145c.47.477.706 1.18.706 2.112 0 .222-.006.388-.017.5l-.332 4.271c-.023.255-.114.452-.275.591-.16.138-.367.208-.623.208-.254 0-.454-.07-.597-.208-.145-.139-.206-.336-.184-.59l.333-4.19a2.94 2.94 0 00.016-.35c0-1.13-.542-1.696-1.628-1.696-.686 0-1.232.205-1.637.615-.403.41-.634.982-.689 1.713l-.315 3.907c-.022.255-.113.452-.274.591a.926.926 0 01-.623.208c-.255 0-.452-.07-.59-.208-.138-.139-.203-.336-.191-.59l.548-6.8a.715.715 0 01.282-.558.994.994 0 01.631-.208c.233 0 .416.067.549.2.133.133.193.316.184.548l-.05.582a2.8 2.8 0 011.12-1.005c.471-.239 1-.358 1.588-.358.908 0 1.597.238 2.068.715zm9.333 6.418c.133.132.2.293.2.482 0 .2-.087.382-.258.55a.805.805 0 01-.573.25.707.707 0 01-.532-.25l-3.672-3.643-.25 3.093c-.022.256-.116.45-.281.582a.92.92 0 01-.598.2.838.838 0 01-.598-.217c-.156-.144-.222-.343-.2-.598l.815-10.292c.01-.255.104-.449.28-.583.178-.132.383-.2.616-.2.244 0 .438.07.582.21.143.138.211.34.198.606l-.513 6.5 3.92-3.508a.735.735 0 01.532-.232c.2 0 .373.075.524.225a.7.7 0 01.223.507.713.713 0 01-.249.532l-3.157 2.777 2.991 3.01zM233.78 4.651c.092.092.13.218.114.38l-.31 3.898c-.023.352-.191.53-.506.53-.145 0-.256-.045-.332-.133-.076-.089-.109-.22-.092-.397l.194-2.484-1.136 1.92a.906.906 0 01-.23.265.478.478 0 01-.277.08.375.375 0 01-.246-.08.69.69 0 01-.178-.265l-.851-1.85-.195 2.414c-.008.177-.058.308-.15.397a.508.508 0 01-.367.132c-.146 0-.257-.044-.334-.132-.076-.089-.11-.22-.102-.397l.31-3.899a.558.558 0 01.178-.38.528.528 0 01.361-.137c.2 0 .352.12.46.356l1.195 2.691 1.62-2.69c.146-.238.323-.357.53-.357.137 0 .252.046.344.138zm-5.287.322c0 .307-.18.46-.539.46h-1.126l-.277 3.507a.494.494 0 01-.177.38.602.602 0 01-.397.138.516.516 0 01-.373-.138.468.468 0 01-.132-.38l.286-3.507h-1.113c-.315 0-.471-.138-.471-.414 0-.307.175-.46.528-.46h3.32c.315 0 .471.138.471.414z" fill="#AAA"/></svg>