<svg width="18" height="19" fill="none" xmlns="http://www.w3.org/2000/svg"><g clip-path="url(#clip0)"><path d="M4.03 17.781H.297V7.266H4.03v10.515zM2.162 5.831C.968 5.832 0 4.968 0 3.924S.968 2.03 2.162 2.03c1.193 0 2.161.848 2.161 1.892s-.968 1.909-2.161 1.909zM18 17.782h-3.725v-5.118c0-1.22-.028-2.785-1.94-2.785-1.94 0-2.238 1.325-2.238 2.697v5.206H6.368V7.266h3.58V8.7H10c.499-.826 1.716-1.698 3.532-1.698 3.777 0 4.472 2.177 4.472 5.003v5.776H18z" fill="#000"/></g><defs><clipPath id="clip0"><path fill="#fff" transform="translate(0 .906)" d="M0 0h18v18H0z"/></clipPath></defs></svg>