<svg width="39" height="40" fill="none" xmlns="http://www.w3.org/2000/svg"><path fill-rule="evenodd" clip-rule="evenodd" d="M36.862 11.993a5.613 5.613 0 00-7.174-1.975 5.509 5.509 0 00-2.428 7.412 5.525 5.525 0 003.97 2.936c-.208 6.546-5.695 11.684-12.255 11.477-6.372-.202-11.45-5.384-11.507-11.745a11.686 11.686 0 017.65-10.987 1.87 1.87 0 001.193-2.162l-.014-.059a1.862 1.862 0 011.66-2.264 15.429 15.429 0 013.126.031 1.89 1.89 0 002.095-1.774 1.94 1.94 0 00-1.78-1.985 19.59 19.59 0 00-2.046-.107C8.664.791 0 9.436 0 20.101s8.665 19.31 19.353 19.31c10.688 0 19.352-8.646 19.352-19.31 0-1.888-.38-5.958-1.843-8.108z" fill="#222"/><path fill-rule="evenodd" clip-rule="evenodd" d="M26.652 2.257c1.107 0 2.005.896 2.005 2 0 1.105-.898 2-2.005 2a2.003 2.003 0 01-2.005-2c0-1.104.898-2 2.005-2z" fill="#222"/></svg>