<svg width="40" height="27" fill="none" xmlns="http://www.w3.org/2000/svg"><path d="M2.787 12.333v8.26H.197V.202h6.872a6.129 6.129 0 014.441 1.775 5.928 5.928 0 01.29 8.324l-.29.293c-1.207 1.154-2.688 1.74-4.442 1.74H2.787v-.001zm0-9.626v7.122h4.346c.966.032 1.9-.358 2.559-1.057 1.352-1.415 1.32-3.69-.08-5.057a3.519 3.519 0 00-2.48-1.008H2.787zm16.562 3.48c1.915 0 3.428.52 4.538 1.544 1.111 1.025 1.658 2.455 1.658 4.26v8.601h-2.478v-1.935h-.113c-1.078 1.594-2.495 2.39-4.281 2.39-1.513 0-2.8-.455-3.815-1.365a4.336 4.336 0 01-1.529-3.415c0-1.447.548-2.585 1.626-3.447 1.078-.861 2.527-1.284 4.33-1.284 1.544 0 2.8.293 3.798.845v-.601a3.07 3.07 0 00-1.063-2.325 3.743 3.743 0 00-2.494-.96c-1.449 0-2.591.618-3.428 1.854l-2.286-1.447c1.223-1.805 3.074-2.715 5.537-2.715zM16 16.316c0 .683.322 1.317.853 1.707.58.455 1.288.7 2.012.683 1.094 0 2.14-.439 2.913-1.22.853-.812 1.288-1.772 1.288-2.877-.805-.65-1.932-.976-3.38-.96-1.046 0-1.932.26-2.64.765-.692.504-1.046 1.138-1.046 1.902zm23.773-9.674l-8.659 20.08h-2.672l3.219-7.024L25.98 6.642h2.816L32.9 16.657h.049l4.007-10.015h2.817z" fill="#5F6368"/></svg>